<?xml version="1.0" encoding="UTF-8"?>
<svg id="Capa_2" data-name="Capa 2" xmlns="http://www.w3.org/2000/svg" viewBox="0 0 1021.62 1190.94">
  <defs>
    <style>
      .cls-1 {
        fill: #9f78ff;
      }
    </style>
  </defs>
  <g id="Capa_1-2" data-name="Capa 1">
    <path class="cls-1" d="M1021.62,1006.81v174.68c-27.31,6.18-55.73,9.45-84.9,9.45-61.17,0-119-14.34-170.32-39.83-.19-.09-.38-.2-.57-.29-87.51-43.68-155.98-119.83-189.57-212.69,0-.01,0-.02-.01-.03-1.62-7.4-3.97-14.5-6.98-21.26-11.51-25.87-32.55-46.57-58.65-57.65-.2-.08-.38-.17-.57-.25-13.29-5.54-27.87-8.62-43.18-8.62h-99.38c-62.1,0-112.9,50.81-112.9,112.9v226.33H0v-369.55c0,4.58.13,9.13.41,13.62v15.91h1.52c-.7-5.25-1.21-10.54-1.52-15.91v-27.24c6.86-114.68,99.82-206.16,215.13-210.68h.18c12.68-.01,25.35-.03,38.02-.04,16.11-.02,32.22-.03,48.34-.05,55.91-.06,111.82-.11,167.75-.18,23.91-.02,47.83-.05,71.74-.07,20.32-.02,40.83.92,61.16-.16,7.56-.4,15.09-1.08,22.58-2.2,19.79-2.95,38.73-9.48,55.88-19.34,26.36-19.86,49.06-44.33,66.85-72.23,16.92-26.52,29.44-56.14,36.48-87.8,4.31-19.35,6.59-39.48,6.59-60.14,0-9.64-.5-19.18-1.47-28.58,16.41-10,27.69-27.55,28.99-47.83.37-3.46.43-7.01.18-10.63-2.1-29.24-26.37-52.88-55.65-54.29-5.05-.24-9.98.16-14.7,1.12-.03,0-.05,0-.07.01-17.19,2.78-31.97,12.79-41.09,26.83-6.18,9.5-9.77,20.84-9.77,33,0,16.67,6.72,31.76,17.61,42.72,1.86,1.87,3.85,3.63,5.95,5.25-6.46,32.95-26.96,60.86-55,77.3-14.14,8.28-30.19,13.63-47.34,15.24-3.59.33-7.22.51-10.91.51s-7.31-.18-10.9-.51c-58.4-5.47-104.16-54.47-104.5-114.23-.01-.23-.01-.46-.01-.68,0-14.55,2.69-28.47,7.6-41.3,1.24-1.03,2.47-2.09,3.64-3.2,1.68-1.57,3.27-3.23,4.79-4.96.09-.1.19-.21.28-.32.35-.39.69-.79,1.02-1.19,7.03-8.26,12.19-18.15,14.87-28.99,1.38-5.54,2.1-11.32,2.1-17.28,0-1.82-.07-3.64-.21-5.43-.04-.59-.09-1.19-.16-1.78-.06-.64-.13-1.28-.22-1.92-.07-.6-.16-1.19-.25-1.78-.17-1.11-.36-2.22-.58-3.3-.11-.57-.24-1.15-.37-1.72-.08-.4-.19-.8-.29-1.2-.17-.74-.36-1.46-.56-2.18-.11-.4-.24-.81-.35-1.21-.22-.71-.44-1.42-.66-2.11-.17-.48-.32-.94-.5-1.41-.6-1.71-1.26-3.38-2-5-.22-.53-.47-1.05-.71-1.56-.24-.51-.49-1.03-.75-1.53-.25-.51-.51-1.02-.79-1.51-.26-.5-.53-.99-.82-1.49-.54-.96-1.1-1.92-1.7-2.86-.31-.51-.63-1-.96-1.49-.31-.48-.62-.94-.95-1.41-.64-.93-1.31-1.84-2.01-2.73-.33-.46-.68-.9-1.05-1.34-.71-.87-1.44-1.73-2.19-2.58-.37-.42-.75-.84-1.14-1.25-.38-.41-.77-.83-1.17-1.22-.39-.41-.79-.81-1.19-1.19-.81-.8-1.63-1.57-2.48-2.31-1.26-1.14-2.57-2.23-3.92-3.24-1.34-1.05-2.71-2.03-4.13-2.96-.68-.46-1.37-.89-2.06-1.32-.02-.01-.04-.02-.06-.04-.67-.41-1.35-.82-2.04-1.2-1.24-.7-2.51-1.38-3.79-2.01-.64-.32-1.29-.63-1.95-.92-.65-.31-1.32-.59-1.98-.87-1.99-.84-4.03-1.6-6.11-2.24-.69-.23-1.39-.43-2.09-.62-.7-.22-1.41-.4-2.11-.56-.7-.2-1.42-.36-2.14-.5-.55-.11-1.1-.23-1.66-.34-.41-.08-.83-.16-1.25-.23-2.92-.52-5.89-.85-8.93-.97-.5-.02-.99-.04-1.49-.05-.1-.01-.21-.01-.3-.01-.33-.01-.66-.02-.99-.03-.2-.01-.39-.01-.6-.01h-.62c-39.29.33-71.02,32.3-71.02,71.66,0,5.94.72,11.73,2.09,17.25,1.3,5.29,3.2,10.35,5.61,15.11.01.02.02.04.03.06,3.72,7.63,8.74,14.5,14.79,20.32,1.43,1.38,2.92,2.7,4.46,3.95,4.73,12.62,7.32,26.28,7.32,40.55,0,.5,0,.99-.02,1.49-.75,59.39-46.35,107.97-104.49,113.42-3.59.33-7.23.51-10.91.51s-7.31-.18-10.9-.51c-17.23-1.62-33.35-7.01-47.54-15.36-27.95-16.44-48.36-44.31-54.81-77.19,2.06-1.6,4.02-3.32,5.85-5.17,10.94-10.95,17.69-26.08,17.69-42.79,0-12.16-3.57-23.48-9.75-32.98-9.94-15.3-26.59-25.82-45.77-27.42-1.68-.15-3.38-.22-5.09-.22-2.29,0-4.55.12-6.77.37-.03,0-.06.01-.09.01-15.34,1.24-29.02,8.39-38.77,19.17C46.75,201.05,4.94,140.46.41,69.74V0h626.83c49.43,3.96,96.21,17.31,138.58,38.25.19.09.38.19.57.29,88.68,44.02,157.88,121.37,191.22,215.68,3.83,10.86,7.19,21.94,10.05,33.22,7.67,30.23,11.75,61.9,11.75,94.53,0,15.1-.87,30-2.57,44.65-7.19,61.93-29.14,119.37-62.26,168.68-37.09,55.25-88.17,100.3-148.18,130.09-.19.1-.38.19-.57.28-.04.02-.08.04-.14.06-7.67,3.8-11.66,12.49-9.23,20.71,2.78,9.38,5.9,18.61,9.36,27.68.19.5.38.99.57,1.48,10.12,26.15,23.02,50.93,38.36,73.94,50.38,75.7,127.01,132.46,216.86,157.29Z"/>
  </g>
</svg>