<?xml version="1.0" encoding="UTF-8"?>
<svg id="Capa_2" data-name="Capa 2" xmlns="http://www.w3.org/2000/svg" viewBox="0 0 2356.83 610.78">
  <defs>
    <style>
      .cls-1 {
        fill: #9f78ff;
      }
    </style>
  </defs>
  <g id="Capa_1-2" data-name="Capa 1">
    <path class="cls-1" d="M1178.67,64.81v540.54h-129.58V64.81c0-34.95,27.61-63.44,62.18-64.81h5.22c34.57,1.37,62.18,29.86,62.18,64.81ZM2356.83,268.91v335.26h-64.52l-64.53-.13v-97.9c0-33.19-25.02-60.54-57.2-64.18-2.4-.28-4.85-.41-7.32-.41s-4.92.14-7.32.41h-114.4c-2.4-.28-4.85-.41-7.32-.41s-4.92.14-7.32.41c-32.19,3.64-57.2,30.99-57.2,64.18v97.9h-129.05v-335.13c0-1.74,0-3.46.04-5.19.16-13.68.95-26.9,2.38-39.63,8.52-62.15,39.12-117.25,83.62-157.12,13.19-11.81,27.6-22.29,43.02-31.22,37.96-21.99,82.03-34.57,129.05-34.57s91.08,12.58,129.05,34.57c15.42,8.93,29.82,19.41,43.02,31.22,44.5,39.87,75.1,94.97,83.62,157.12,1.42,12.74,2.22,25.95,2.38,39.63.03,1.72.04,3.45.04,5.19ZM2227.79,218.93c-9.16-63.13-63.45-111.62-129.05-111.62s-119.89,48.49-129.05,111.62v116.58h258.09v-116.58ZM732.96,107.71h201.9c29.3-.36,52.93-24.23,52.93-53.61V.49h-259.22c-72.22,0-134.09,44.31-159.91,107.23-8.29,20.21-12.87,42.35-12.87,65.55,0,30.99,8.16,60.08,22.45,85.23,9.5,16.72,21.71,31.71,36.04,44.35-14.32,12.64-26.54,27.63-36.04,44.35-14.29,25.15-22.45,54.24-22.45,85.23,0,23.2,4.58,45.34,12.87,65.55,25.81,62.92,87.69,107.23,159.91,107.23h259.22v-53.62c0-29.38-23.63-53.24-52.93-53.61h-201.9c-27.69-2.15-51.19-19.25-62.43-43.24-4.55-9.7-7.09-20.54-7.09-31.97,0-41.66,33.78-75.44,75.44-75.44,2.14,0,11.92-.14,14.75-.14h170.24v-88.7h-170.24c-2.83,0-12.61-.14-14.75-.14-41.66,0-75.44-33.77-75.44-75.44,0-11.43,2.54-22.26,7.09-31.97,11.24-23.99,34.74-41.09,62.43-43.24ZM411.01,436.41c-7.83-11.75-14.42-24.4-19.59-37.76-.1-.25-.2-.5-.29-.76-1.77-4.63-3.36-9.34-4.78-14.14-1.24-4.2.79-8.63,4.71-10.57.03-.01.05-.02.07-.03.1-.05.2-.09.29-.14,30.65-15.21,56.74-38.22,75.68-66.44,16.92-25.19,28.13-54.52,31.8-86.15.87-7.49,1.31-15.09,1.31-22.81,0-16.66-2.08-32.84-6-48.28-1.46-5.76-3.17-11.42-5.13-16.97-17.03-48.17-52.37-87.67-97.66-110.15-.1-.05-.2-.1-.29-.15-21.64-10.7-45.53-17.52-70.78-19.54H.21v35.62c2.31,36.12,23.66,67.06,54.12,82.91,4.98-5.51,11.97-9.16,19.8-9.79.02,0,.03,0,.05,0,1.14-.13,2.29-.19,3.46-.19.87,0,1.74.04,2.6.11,9.8.81,18.3,6.19,23.38,14,3.15,4.85,4.98,10.63,4.98,16.84,0,8.53-3.45,16.26-9.04,21.85-.94.94-1.94,1.83-2.99,2.64,3.3,16.79,13.72,31.03,27.99,39.42,7.25,4.26,15.48,7.02,24.28,7.85,1.83.17,3.69.26,5.56.26s3.74-.09,5.57-.26c29.69-2.78,52.99-27.59,53.37-57.93.01-.25.01-.51.01-.76,0-7.29-1.32-14.27-3.74-20.71-.79-.63-1.55-1.31-2.28-2.02-3.09-2.97-5.66-6.48-7.55-10.38,0-.01-.01-.02-.02-.03-1.23-2.43-2.2-5.01-2.87-7.72-.7-2.82-1.07-5.78-1.07-8.81,0-20.1,16.21-36.43,36.27-36.59h0s.32,0,.32,0c.11,0,.21,0,.31,0,.17,0,.34.01.51.02.05,0,.1,0,.15,0,.25,0,.51.02.76.03,1.55.06,3.07.23,4.56.5.22.04.43.07.64.12.29.06.57.12.85.17.37.07.74.15,1.09.25.36.08.72.17,1.08.29.36.1.71.2,1.07.32,1.06.33,2.11.71,3.12,1.14.34.14.68.29,1.01.44.33.15.67.31.99.47.66.32,1.3.67,1.94,1.03.35.2.7.4,1.04.61.01.01.02.02.03.02.35.22.7.44,1.05.67.72.48,1.43.98,2.11,1.51.69.52,1.35,1.07,2,1.66.43.38.85.77,1.26,1.18.21.2.41.4.61.61.21.2.4.41.6.62.2.21.39.42.58.64.38.43.75.87,1.12,1.32.19.22.36.45.53.68.36.45.7.92,1.03,1.4.17.24.33.48.49.72.17.25.33.5.49.76.31.48.59.97.87,1.46.15.25.29.51.42.76.14.25.28.51.4.77.13.26.26.52.38.78.13.26.25.53.36.8.38.83.71,1.68,1.02,2.56.09.24.17.48.25.72.12.35.23.71.34,1.08.06.21.12.41.18.62.1.36.2.74.29,1.11.05.21.11.41.15.61.07.29.13.59.19.88.11.56.21,1.12.3,1.69.05.3.09.6.13.91.04.32.08.65.11.98.03.3.06.61.08.91.07.92.11,1.84.11,2.77,0,3.04-.37,5.99-1.07,8.82-1.37,5.54-4,10.59-7.6,14.81-.16.21-.34.41-.52.61-.05.06-.1.11-.14.16-.77.88-1.59,1.73-2.44,2.53-.6.57-1.22,1.11-1.86,1.63-2.51,6.55-3.88,13.66-3.88,21.09,0,.12,0,.23,0,.35.17,30.52,23.55,55.55,53.37,58.34,1.83.17,3.69.26,5.57.26s3.73-.09,5.57-.26c8.75-.82,16.95-3.55,24.18-7.78,14.32-8.4,24.79-22.65,28.09-39.48-1.07-.83-2.08-1.72-3.04-2.68-5.56-5.6-8.99-13.3-8.99-21.82,0-6.21,1.83-12,4.99-16.85,4.66-7.17,12.2-12.28,20.99-13.7.01,0,.02,0,.04,0,2.41-.49,4.93-.69,7.51-.57,14.95.72,27.35,12.79,28.42,27.73.13,1.85.1,3.66-.09,5.43-.67,10.36-6.43,19.32-14.81,24.43.5,4.8.75,9.67.75,14.6,0,10.55-1.16,20.83-3.36,30.71-3.6,16.17-9.99,31.3-18.63,44.84-9.09,14.25-20.68,26.75-34.14,36.89-8.76,5.04-18.43,8.37-28.54,9.88-3.82.57-7.67.92-11.53,1.12-10.38.55-20.86.07-31.24.08-12.21.01-24.43.03-36.64.04-28.56.03-57.12.06-85.67.09-8.23.01-16.46.02-24.69.03-6.47,0-12.94.02-19.42.02h-.09C51.19,309.08,3.71,355.8.21,414.37v13.91c.16,2.74.42,5.44.78,8.13H.21v-8.13c-.14-2.3-.21-4.62-.21-6.96v188.74h130.02v-115.59c0-31.71,25.95-57.66,57.66-57.66h50.76c7.82,0,15.27,1.57,22.05,4.4.1.04.19.08.29.13,13.33,5.66,24.07,16.23,29.95,29.44,1.54,3.45,2.74,7.08,3.57,10.86,0,0,0,.01,0,.02,17.16,47.43,52.12,86.32,96.82,108.63.1.05.2.1.29.15,26.21,13.02,55.74,20.34,86.98,20.34,14.9,0,29.41-1.67,43.36-4.82v-89.21c-45.89-12.68-85.03-41.67-110.76-80.33ZM1773.11,534.87V66.4c0-35.72-28.96-64.67-64.69-64.66-35.8.01-64.63,29.48-64.63,65.28v97.71c0,11.8-9.34,21.69-21.14,21.91-4.09.08-7.93-.98-11.21-2.89,0,0,0,0-.01,0-.89-.51-1.73-1.09-2.53-1.72,0,0,0,0-.01,0l-222.42-151.31-9.99-6.8-17.43-11.85c-9.37-6.37-20.36-10.06-31.69-10.3-.48,0-.97-.01-1.45-.01h-4.1c-16.66,0-31.85,6.3-43.32,16.65,0,0,0,0-.01.02-7.62,6.88-13.6,15.56-17.26,25.37-2.63,7.04-4.06,14.66-4.06,22.61v538.95h129.36v-70.48h-.05V228.26c0-12.12,9.92-22.26,22.04-22.07,3.39.05,6.59.88,9.43,2.32,1.67.85,3.22,1.9,4.61,3.14,0,0,0,0,.01,0l192.21,130.75c4.09,2.07,7.88,4.66,11.28,7.67,9.62,8.51,16.17,20.41,17.76,33.84.25,2.1.38,4.24.38,6.4s-.13,4.3-.38,6.4v143.83c0,.49,0,.97.02,1.46v63.33h129.36v-70.48h-.06Z"/>
  </g>
</svg>